<svg xmlns="http://www.w3.org/2000/svg" xmlns:xlink="http://www.w3.org/1999/xlink" width="1024" zoomAndPan="magnify" viewBox="0 0 768 767.999994" height="1024" preserveAspectRatio="xMidYMid meet" version="1.0"><defs><clipPath id="2ab734ab97"><path d="M 518 414 L 656.421875 414 L 656.421875 656.421875 L 518 656.421875 Z M 518 414 " clip-rule="nonzero"/></clipPath><clipPath id="69c07e95ae"><path d="M 111.921875 414 L 252 414 L 252 656.421875 L 111.921875 656.421875 Z M 111.921875 414 " clip-rule="nonzero"/></clipPath><clipPath id="18e3ee8b40"><path d="M 336 571 L 375 571 L 375 656.421875 L 336 656.421875 Z M 336 571 " clip-rule="nonzero"/></clipPath><clipPath id="2e9128dc0e"><path d="M 395 571 L 433 571 L 433 656.421875 L 395 656.421875 Z M 395 571 " clip-rule="nonzero"/></clipPath><clipPath id="139ad0602d"><path d="M 272 275 L 497 275 L 497 656.421875 L 272 656.421875 Z M 272 275 " clip-rule="nonzero"/></clipPath><clipPath id="5bd334da40"><path d="M 347 111.921875 L 423 111.921875 L 423 176 L 347 176 Z M 347 111.921875 " clip-rule="nonzero"/></clipPath></defs><path fill="#000000" d="M 234.730469 355.355469 C 233.777344 356.027344 318.667969 296.113281 323.175781 292.929688 L 384.832031 249.414062 C 511.019531 338.476562 457.363281 300.609375 534.933594 355.355469 C 544.566406 362.15625 557.890625 359.859375 564.691406 350.222656 C 571.492188 340.589844 569.195312 327.261719 559.558594 320.460938 L 385.109375 197.335938 L 384.832031 197.730469 L 384.554688 197.335938 L 210.105469 320.460938 C 200.46875 327.261719 198.167969 340.589844 204.972656 350.222656 C 211.773438 359.859375 225.097656 362.15625 234.730469 355.355469 Z M 234.730469 355.355469 " fill-opacity="1" fill-rule="nonzero"/><path fill="#000000" d="M 587.355469 496.277344 C 581.363281 496.277344 576.492188 501.148438 576.492188 507.140625 L 576.492188 592.363281 L 598.222656 592.363281 L 598.222656 507.140625 C 598.222656 501.148438 593.347656 496.277344 587.355469 496.277344 Z M 587.355469 496.277344 " fill-opacity="1" fill-rule="nonzero"/><g clip-path="url(#2ab734ab97)"><path fill="#000000" d="M 518.289062 414.417969 L 518.289062 656.421875 L 656.421875 656.421875 L 656.421875 463.753906 Z M 619.574219 603.039062 C 619.574219 608.9375 614.792969 613.71875 608.898438 613.71875 L 565.816406 613.71875 C 559.917969 613.71875 555.140625 608.9375 555.140625 603.039062 L 555.140625 507.140625 C 555.140625 489.375 569.59375 474.921875 587.355469 474.921875 C 605.121094 474.921875 619.574219 489.375 619.574219 507.140625 Z M 619.574219 603.039062 " fill-opacity="1" fill-rule="nonzero"/></g><path fill="#000000" d="M 192.515625 507.140625 C 192.515625 501.152344 187.640625 496.277344 181.652344 496.277344 C 175.660156 496.277344 170.785156 501.148438 170.785156 507.140625 L 170.785156 592.363281 L 192.515625 592.363281 Z M 192.515625 507.140625 " fill-opacity="1" fill-rule="nonzero"/><g clip-path="url(#69c07e95ae)"><path fill="#000000" d="M 111.921875 656.421875 L 251.378906 656.421875 L 251.378906 414.386719 L 111.921875 463.753906 Z M 149.433594 507.140625 C 149.433594 489.375 163.886719 474.921875 181.652344 474.921875 C 199.414062 474.921875 213.867188 489.375 213.867188 507.140625 L 213.867188 603.039062 C 213.867188 608.9375 209.089844 613.71875 203.191406 613.71875 L 160.109375 613.71875 C 154.214844 613.71875 149.433594 608.9375 149.433594 603.039062 Z M 149.433594 507.140625 " fill-opacity="1" fill-rule="nonzero"/></g><g clip-path="url(#18e3ee8b40)"><path fill="#000000" d="M 336.789062 571.011719 L 374.15625 571.011719 L 374.15625 656.421875 L 336.789062 656.421875 Z M 336.789062 571.011719 " fill-opacity="1" fill-rule="nonzero"/></g><g clip-path="url(#2e9128dc0e)"><path fill="#000000" d="M 395.507812 571.011719 L 432.875 571.011719 L 432.875 656.421875 L 395.507812 656.421875 Z M 395.507812 571.011719 " fill-opacity="1" fill-rule="nonzero"/></g><path fill="#000000" d="M 336.789062 533.644531 L 336.789062 549.65625 L 374.15625 549.65625 L 374.15625 486.808594 C 352.789062 491.679688 336.789062 510.820312 336.789062 533.644531 Z M 336.789062 533.644531 " fill-opacity="1" fill-rule="nonzero"/><g clip-path="url(#139ad0602d)"><path fill="#000000" d="M 272.730469 354.671875 L 272.730469 656.421875 L 315.433594 656.421875 L 315.433594 533.644531 C 315.433594 495.378906 346.566406 464.246094 384.832031 464.246094 C 423.097656 464.246094 454.226562 495.378906 454.226562 533.644531 L 454.226562 656.421875 L 496.9375 656.421875 L 496.9375 354.671875 L 384.835938 275.550781 Z M 421.046875 325.472656 C 430.820312 325.78125 440.128906 330.175781 446.589844 337.53125 C 459.0625 351.660156 458.410156 373.179688 445.09375 386.515625 C 431.542969 400.179688 425.941406 405.828125 423.855469 407.933594 C 423.84375 407.945312 423.832031 407.957031 423.820312 407.96875 L 423.820312 407.972656 C 423.8125 407.980469 423.792969 408 423.761719 408.03125 C 423.75 408.042969 423.738281 408.054688 423.726562 408.066406 L 423.121094 408.671875 C 423.105469 408.691406 423.085938 408.710938 423.066406 408.730469 C 420.957031 410.855469 413.679688 418.1875 392.300781 439.738281 C 390.296875 441.757812 387.566406 442.894531 384.722656 442.894531 C 381.878906 442.894531 379.148438 441.757812 377.144531 439.738281 L 324.878906 387.082031 C 324.6875 386.882812 324.5 386.6875 324.324219 386.492188 L 324.308594 386.507812 C 313.929688 376.054688 307.039062 353.488281 324.222656 336.039062 C 324.3125 335.949219 324.402344 335.859375 324.496094 335.769531 C 331.011719 329.207031 340.101562 325.453125 349.5 325.453125 C 358.707031 325.453125 366.886719 328.988281 373.816406 335.953125 L 384.027344 346.253906 L 394.832031 335.863281 C 401.757812 328.953125 411.300781 325.171875 421.046875 325.472656 Z M 421.046875 325.472656 " fill-opacity="1" fill-rule="nonzero"/></g><path fill="#000000" d="M 376.269531 368.753906 L 358.664062 351 C 355.78125 348.101562 352.953125 346.804688 349.5 346.804688 C 345.765625 346.804688 342.042969 348.34375 339.546875 350.917969 C 339.449219 351.019531 339.351562 351.117188 339.25 351.210938 C 329.898438 360.96875 339.355469 371.355469 339.457031 371.457031 C 339.464844 371.464844 339.472656 371.472656 339.476562 371.476562 C 340.179688 372.183594 370.246094 402.480469 384.71875 417.0625 L 408.261719 393.335938 C 408.308594 393.289062 408.355469 393.238281 408.402344 393.191406 L 429.949219 371.464844 C 429.960938 371.453125 429.96875 371.441406 429.980469 371.433594 C 435.359375 366.054688 435.613281 357.363281 430.5625 351.640625 C 427.933594 348.644531 424.324219 346.941406 420.378906 346.816406 C 416.417969 346.695312 412.695312 348.183594 409.875 351.015625 C 409.820312 351.070312 409.765625 351.125 409.710938 351.175781 L 391.253906 368.929688 C 387.046875 372.972656 380.375 372.894531 376.269531 368.753906 Z M 376.269531 368.753906 " fill-opacity="1" fill-rule="nonzero"/><path fill="#000000" d="M 395.507812 486.808594 L 395.507812 549.65625 L 432.875 549.65625 L 432.875 533.644531 C 432.875 510.820312 416.875 491.679688 395.507812 486.808594 Z M 395.507812 486.808594 " fill-opacity="1" fill-rule="nonzero"/><g clip-path="url(#5bd334da40)"><path fill="#000000" d="M 358.140625 154.628906 L 374.15625 154.628906 L 374.15625 175.980469 L 395.507812 175.980469 L 395.507812 154.628906 L 411.523438 154.628906 C 417.417969 154.628906 422.199219 149.847656 422.199219 143.953125 C 422.199219 138.054688 417.417969 133.277344 411.523438 133.277344 L 395.507812 133.277344 L 395.507812 122.597656 C 395.507812 116.703125 390.726562 111.921875 384.832031 111.921875 C 378.9375 111.921875 374.15625 116.703125 374.15625 122.597656 L 374.15625 133.277344 L 358.140625 133.277344 C 352.246094 133.277344 347.464844 138.054688 347.464844 143.953125 C 347.464844 149.847656 352.242188 154.628906 358.140625 154.628906 Z M 358.140625 154.628906 " fill-opacity="1" fill-rule="nonzero"/></g></svg>