<svg xmlns="http://www.w3.org/2000/svg" xmlns:xlink="http://www.w3.org/1999/xlink" width="1024" zoomAndPan="magnify" viewBox="0 0 768 767.999994" height="1024" preserveAspectRatio="xMidYMid meet" version="1.0"><defs><clipPath id="c57c530ef7"><path d="M 118.5625 298 L 461 298 L 461 640.519531 L 118.5625 640.519531 Z M 118.5625 298 " clip-rule="nonzero"/></clipPath><clipPath id="1f44769f3d"><path d="M 307 298 L 649.5625 298 L 649.5625 640.519531 L 307 640.519531 Z M 307 298 " clip-rule="nonzero"/></clipPath></defs><path fill="#000000" d="M 367.585938 279.679688 C 376.6875 288.777344 391.4375 288.777344 400.539062 279.679688 L 467.046875 216.71875 C 486.347656 197.425781 486.347656 166.140625 467.046875 146.847656 C 447.75 127.554688 416.464844 127.554688 397.164062 146.847656 L 384.0625 159.949219 L 370.960938 146.847656 C 351.660156 127.550781 320.375 127.550781 301.078125 146.847656 C 281.78125 166.140625 281.78125 197.421875 301.078125 216.71875 Z M 367.585938 279.679688 " fill-opacity="1" fill-rule="nonzero"/><g clip-path="url(#c57c530ef7)"><path fill="#000000" d="M 336.257812 584.339844 C 321.484375 590.34375 305.855469 593.394531 289.722656 593.394531 C 221.445312 593.394531 165.902344 537.855469 165.902344 469.589844 C 165.902344 401.324219 221.445312 345.789062 289.722656 345.789062 C 307.652344 345.789062 324.703125 349.625 340.105469 356.511719 C 340.335938 356.597656 340.5625 356.695312 340.789062 356.8125 C 359.605469 365.363281 375.914062 378.492188 388.296875 394.761719 C 388.652344 395.128906 388.957031 395.523438 389.199219 395.957031 C 404.488281 416.550781 413.542969 442.03125 413.542969 469.589844 C 413.542969 495.089844 405.921875 519.386719 391.464844 540.152344 C 401.464844 552.445312 414.011719 562.582031 428.300781 569.753906 C 449.519531 540.496094 460.714844 505.972656 460.714844 469.589844 C 460.714844 375.316406 384.007812 298.625 289.722656 298.625 C 195.4375 298.625 118.730469 375.320312 118.730469 469.589844 C 118.730469 563.859375 195.4375 640.554688 289.722656 640.554688 C 319.066406 640.554688 347.6875 633.066406 373.074219 618.871094 C 359.269531 609.101562 346.875 597.46875 336.257812 584.339844 Z M 336.257812 584.339844 " fill-opacity="1" fill-rule="nonzero"/></g><g clip-path="url(#1f44769f3d)"><path fill="#000000" d="M 478.402344 298.625 C 449.058594 298.625 420.4375 306.113281 395.050781 320.308594 C 408.855469 330.078125 421.25 341.710938 431.871094 354.839844 C 446.636719 348.839844 462.265625 345.789062 478.402344 345.789062 C 546.679688 345.789062 602.222656 401.328125 602.222656 469.589844 C 602.222656 537.855469 546.679688 593.394531 478.402344 593.394531 C 460.488281 593.394531 443.453125 589.5625 428.0625 582.691406 C 427.808594 582.597656 427.558594 582.488281 427.316406 582.359375 C 408.507812 573.804688 392.203125 560.679688 379.824219 544.414062 C 379.472656 544.050781 379.167969 543.65625 378.929688 543.230469 C 363.636719 522.636719 354.582031 497.152344 354.582031 469.589844 C 354.582031 444.089844 362.203125 419.796875 376.65625 399.027344 C 366.660156 386.734375 354.109375 376.597656 339.824219 369.425781 C 318.605469 398.679688 307.410156 433.207031 307.410156 469.589844 C 307.410156 563.863281 384.117188 640.554688 478.402344 640.554688 C 572.6875 640.554688 649.394531 563.859375 649.394531 469.589844 C 649.394531 375.320312 572.6875 298.625 478.402344 298.625 Z M 478.402344 298.625 " fill-opacity="1" fill-rule="nonzero"/></g></svg>