<svg xmlns="http://www.w3.org/2000/svg" xmlns:xlink="http://www.w3.org/1999/xlink" width="1024" zoomAndPan="magnify" viewBox="0 0 768 767.999994" height="1024" preserveAspectRatio="xMidYMid meet" version="1.0"><defs><clipPath id="d76a01c42f"><path d="M 162.117188 252 L 259 252 L 259 296 L 162.117188 296 Z M 162.117188 252 " clip-rule="nonzero"/></clipPath><clipPath id="a0337ec9de"><path d="M 205 312 L 345 312 L 345 608.089844 L 205 608.089844 Z M 205 312 " clip-rule="nonzero"/></clipPath><clipPath id="1c79747c26"><path d="M 362 514 L 406 514 L 406 608.089844 L 362 608.089844 Z M 362 514 " clip-rule="nonzero"/></clipPath><clipPath id="b79110ada3"><path d="M 423 312 L 563 312 L 563 608.089844 L 423 608.089844 Z M 423 312 " clip-rule="nonzero"/></clipPath></defs><g clip-path="url(#d76a01c42f)"><path fill="#000000" d="M 258.027344 252.003906 L 179.765625 252.003906 C 170.160156 252.003906 162.371094 259.777344 162.371094 269.371094 L 162.371094 278.058594 C 162.371094 287.652344 170.160156 295.429688 179.765625 295.429688 L 258.027344 295.429688 Z M 258.027344 252.003906 " fill-opacity="1" fill-rule="nonzero"/></g><path fill="#000000" d="M 336.289062 252.003906 L 431.945312 252.003906 L 431.945312 295.429688 L 336.289062 295.429688 Z M 336.289062 252.003906 " fill-opacity="1" fill-rule="nonzero"/><path fill="#000000" d="M 275.417969 252.003906 L 318.898438 252.003906 L 318.898438 295.429688 L 275.417969 295.429688 Z M 275.417969 252.003906 " fill-opacity="1" fill-rule="nonzero"/><path fill="#000000" d="M 449.335938 252.003906 L 492.8125 252.003906 L 492.8125 295.429688 L 449.335938 295.429688 Z M 449.335938 252.003906 " fill-opacity="1" fill-rule="nonzero"/><path fill="#000000" d="M 588.46875 252.003906 L 510.207031 252.003906 L 510.207031 295.429688 L 588.46875 295.429688 C 598.074219 295.429688 605.859375 287.652344 605.859375 278.058594 L 605.859375 269.371094 C 605.859375 259.777344 598.074219 252.003906 588.46875 252.003906 Z M 588.46875 252.003906 " fill-opacity="1" fill-rule="nonzero"/><g clip-path="url(#a0337ec9de)"><path fill="#000000" d="M 310.285156 401.027344 C 318.488281 392.828125 329.40625 388.308594 341.023438 388.308594 L 341.035156 388.308594 C 342.363281 388.308594 343.679688 388.375 344.984375 388.492188 L 344.984375 312.796875 L 205.851562 312.796875 L 205.851562 582.035156 C 205.851562 596.425781 217.53125 608.09375 231.9375 608.09375 L 344.984375 608.09375 L 344.984375 497.09375 L 310.285156 462.433594 C 293.335938 445.503906 293.335938 417.960938 310.285156 401.027344 Z M 310.285156 401.027344 " fill-opacity="1" fill-rule="nonzero"/></g><g clip-path="url(#1c79747c26)"><path fill="#000000" d="M 384.121094 532.582031 C 381.898438 532.582031 379.671875 531.734375 377.972656 530.039062 L 362.375 514.460938 L 362.375 608.089844 L 405.855469 608.089844 L 405.855469 514.472656 L 390.269531 530.039062 C 388.574219 531.734375 386.347656 532.582031 384.121094 532.582031 Z M 384.121094 532.582031 " fill-opacity="1" fill-rule="nonzero"/></g><path fill="#000000" d="M 371.78125 401.035156 L 384.121094 413.355469 L 396.460938 401.03125 C 399.296875 398.195312 402.460938 395.816406 405.855469 393.894531 L 405.855469 312.796875 L 362.375 312.796875 L 362.375 393.890625 C 365.78125 395.8125 368.949219 398.199219 371.78125 401.035156 Z M 371.78125 401.035156 " fill-opacity="1" fill-rule="nonzero"/><g clip-path="url(#b79110ada3)"><path fill="#000000" d="M 423.246094 388.488281 C 424.550781 388.371094 425.863281 388.304688 427.183594 388.304688 C 427.226562 388.304688 427.265625 388.304688 427.308594 388.304688 C 438.890625 388.335938 449.777344 392.855469 457.953125 401.03125 C 474.902344 417.957031 474.902344 445.503906 457.949219 462.433594 L 423.246094 497.101562 L 423.246094 608.09375 L 536.292969 608.09375 C 550.703125 608.09375 562.382812 596.425781 562.382812 582.035156 L 562.382812 312.796875 L 423.246094 312.796875 Z M 423.246094 388.488281 " fill-opacity="1" fill-rule="nonzero"/></g><path fill="#000000" d="M 445.652344 413.3125 C 440.746094 408.40625 434.214844 405.695312 427.257812 405.675781 C 427.234375 405.675781 427.210938 405.675781 427.1875 405.675781 C 420.230469 405.675781 413.691406 408.386719 408.757812 413.3125 L 390.269531 431.777344 C 386.878906 435.167969 381.371094 435.167969 377.976562 431.777344 L 359.480469 413.3125 C 354.558594 408.386719 348.011719 405.679688 341.03125 405.675781 C 341.027344 405.675781 341.027344 405.675781 341.027344 405.675781 C 334.054688 405.675781 327.507812 408.386719 322.585938 413.308594 C 312.414062 423.46875 312.414062 439.996094 322.582031 450.152344 L 359.800781 487.324219 C 359.820312 487.34375 359.839844 487.359375 359.859375 487.378906 L 384.121094 511.617188 L 408.375 487.390625 C 408.394531 487.367188 408.414062 487.351562 408.433594 487.328125 L 445.652344 450.152344 C 455.824219 439.996094 455.824219 423.46875 445.652344 413.3125 Z M 445.652344 413.3125 " fill-opacity="1" fill-rule="nonzero"/><path fill="#000000" d="M 344.984375 234.632812 L 344.984375 221.605469 C 344.984375 213.023438 347.777344 205.066406 352.5 198.613281 L 308.234375 168.355469 C 295.042969 159.574219 277.558594 169.972656 278.992188 185.734375 L 278.898438 234.632812 Z M 344.984375 234.632812 " fill-opacity="1" fill-rule="nonzero"/><path fill="#000000" d="M 405.855469 221.605469 C 405.855469 216.914062 404.378906 212.449219 401.585938 208.679688 C 400.0625 206.632812 398.203125 204.886719 396.109375 203.511719 L 372.105469 203.511719 C 366.246094 207.414062 362.375 214.066406 362.375 221.605469 L 362.375 234.632812 L 405.855469 234.632812 Z M 405.855469 221.605469 " fill-opacity="1" fill-rule="nonzero"/><path fill="#000000" d="M 423.246094 234.632812 L 489.335938 234.632812 L 489.242188 185.734375 C 490.675781 169.972656 473.1875 159.574219 459.996094 168.355469 L 415.75 198.605469 C 420.664062 205.320312 423.246094 213.265625 423.246094 221.605469 Z M 423.246094 234.632812 " fill-opacity="1" fill-rule="nonzero"/></svg>