<svg xmlns="http://www.w3.org/2000/svg" xmlns:xlink="http://www.w3.org/1999/xlink" width="1024" zoomAndPan="magnify" viewBox="0 0 768 767.999994" height="1024" preserveAspectRatio="xMidYMid meet" version="1.0"><defs><clipPath id="9020d40b39"><path d="M 484 394 L 630 394 L 630 537.898438 L 484 537.898438 Z M 484 394 " clip-rule="nonzero"/></clipPath><clipPath id="aa56cb61a7"><path d="M 485 230.398438 L 629 230.398438 L 629 343 L 485 343 Z M 485 230.398438 " clip-rule="nonzero"/></clipPath><clipPath id="a59ef858a5"><path d="M 422.539062 355 L 691 355 L 691 518 L 422.539062 518 Z M 422.539062 355 " clip-rule="nonzero"/></clipPath><clipPath id="9cf7d7a2c1"><path d="M 196 230.398438 L 269 230.398438 L 269 279 L 196 279 Z M 196 230.398438 " clip-rule="nonzero"/></clipPath><clipPath id="2cfc0ce222"><path d="M 99.070312 249 L 218 249 L 218 537.898438 L 99.070312 537.898438 Z M 99.070312 249 " clip-rule="nonzero"/></clipPath><clipPath id="6d9f503e06"><path d="M 243 249 L 366.820312 249 L 366.820312 537.898438 L 243 537.898438 Z M 243 249 " clip-rule="nonzero"/></clipPath></defs><g clip-path="url(#9020d40b39)"><path fill="#000000" d="M 556.757812 394.773438 C 541.917969 394.773438 528.796875 404.25 524.105469 418.347656 C 521.699219 425.574219 486.15625 532.367188 484.316406 537.898438 C 506.261719 534.816406 528.320312 533.144531 550.386719 532.875 L 550.386719 465.4375 C 550.386719 461.804688 553.324219 458.863281 556.949219 458.863281 C 560.574219 458.863281 563.515625 461.804688 563.515625 465.4375 L 563.515625 532.878906 C 585.453125 533.164062 607.382812 534.835938 629.203125 537.898438 C 627.082031 531.53125 592.140625 426.539062 589.414062 418.347656 C 584.722656 404.25 571.597656 394.773438 556.757812 394.773438 Z M 556.757812 394.773438 " fill-opacity="1" fill-rule="nonzero"/></g><g clip-path="url(#aa56cb61a7)"><path fill="#000000" d="M 602.535156 342.175781 C 609.222656 331.894531 632.085938 292.535156 627.839844 240.566406 C 627.367188 234.769531 622.675781 230.398438 616.929688 230.398438 C 610.902344 230.398438 605.996094 235.3125 605.996094 241.351562 L 605.996094 253.5625 C 605.996094 261.671875 602.164062 269.464844 595.746094 274.410156 L 560.761719 301.363281 C 558.402344 303.179688 555.117188 303.179688 552.757812 301.363281 L 517.773438 274.410156 C 511.355469 269.464844 507.523438 261.671875 507.523438 253.566406 C 507.523438 250.492188 507.523438 244.453125 507.523438 241.355469 C 507.523438 235.3125 502.617188 230.398438 496.589844 230.398438 C 490.84375 230.398438 486.152344 234.769531 485.679688 240.566406 C 481.417969 292.722656 504.28125 331.933594 510.976562 342.175781 Z M 602.535156 342.175781 " fill-opacity="1" fill-rule="nonzero"/></g><g clip-path="url(#a59ef858a5)"><path fill="#000000" d="M 602.132812 355.324219 L 511.386719 355.324219 L 422.554688 515.472656 C 440.617188 511.621094 459.398438 512.433594 477.128906 517.90625 L 511.648438 414.191406 C 518.128906 394.710938 536.257812 381.625 556.757812 381.625 C 577.257812 381.625 595.386719 394.710938 601.871094 414.191406 L 636.390625 517.90625 C 654.121094 512.433594 672.902344 511.621094 690.964844 515.472656 Z M 602.132812 355.324219 " fill-opacity="1" fill-rule="nonzero"/></g><path fill="#000000" d="M 233.027344 297.316406 L 209.015625 312.386719 C 209.738281 313.335938 208.945312 312.054688 220.621094 335.113281 L 245.238281 335.113281 C 256.6875 312.496094 256.152344 313.230469 256.875 312.28125 Z M 233.027344 297.316406 " fill-opacity="1" fill-rule="nonzero"/><path fill="#000000" d="M 221.777344 348.207031 L 210.785156 394.445312 L 250.933594 376.941406 C 247.984375 364.535156 245.519531 354.167969 244.101562 348.207031 Z M 221.777344 348.207031 " fill-opacity="1" fill-rule="nonzero"/><path fill="#000000" d="M 223.472656 287.871094 L 182.640625 233.015625 L 164.902344 246.277344 L 175.859375 317.746094 Z M 223.472656 287.871094 " fill-opacity="1" fill-rule="nonzero"/><g clip-path="url(#9cf7d7a2c1)"><path fill="#000000" d="M 268.820312 230.398438 L 196.988281 230.398438 L 232.90625 278.652344 Z M 268.820312 230.398438 " fill-opacity="1" fill-rule="nonzero"/></g><path fill="#000000" d="M 230.390625 418.1875 L 257.949219 406.4375 C 256.609375 400.8125 255.289062 395.246094 254.011719 389.875 L 207 410.367188 L 193.3125 467.933594 L 265.132812 436.636719 C 263.804688 431.054688 262.417969 425.238281 261.019531 419.351562 L 235.5 430.234375 C 232.175781 431.648438 228.34375 430.09375 226.9375 426.773438 C 225.523438 423.445312 227.070312 419.601562 230.390625 418.1875 Z M 230.390625 418.1875 " fill-opacity="1" fill-rule="nonzero"/><path fill="#000000" d="M 290.03125 317.640625 L 300.988281 246.265625 L 283.238281 232.921875 L 242.414062 287.765625 Z M 290.03125 317.640625 " fill-opacity="1" fill-rule="nonzero"/><g clip-path="url(#2cfc0ce222)"><path fill="#000000" d="M 177.621094 477.480469 L 209.710938 342.492188 L 198.003906 319.296875 L 174.375 334.121094 C 170.40625 336.609375 165.171875 334.214844 164.457031 329.566406 L 152.25 249.929688 L 131.082031 249.929688 C 113.4375 249.929688 99.085938 264.3125 99.085938 281.996094 L 99.085938 505.832031 C 99.085938 523.511719 113.4375 537.898438 131.082031 537.898438 L 217.6875 537.898438 L 178.648438 482.785156 C 177.605469 481.316406 177.171875 479.367188 177.621094 477.480469 Z M 177.621094 477.480469 " fill-opacity="1" fill-rule="nonzero"/></g><g clip-path="url(#6d9f503e06)"><path fill="#000000" d="M 334.808594 249.929688 L 313.640625 249.929688 L 301.433594 329.460938 C 300.71875 334.109375 295.484375 336.503906 291.511719 334.011719 L 267.894531 319.195312 C 260.292969 334.277344 257.464844 339.890625 256.546875 341.710938 C 256.515625 341.773438 256.476562 341.847656 256.429688 341.941406 C 256.433594 341.933594 256.4375 341.925781 256.441406 341.917969 C 256.386719 342.027344 256.339844 342.117188 256.304688 342.195312 C 256.304688 342.191406 256.304688 342.1875 256.308594 342.1875 C 256.285156 342.230469 256.261719 342.28125 256.234375 342.328125 C 256.238281 342.324219 256.242188 342.316406 256.246094 342.308594 C 256.238281 342.328125 256.230469 342.34375 256.21875 342.359375 C 256.214844 342.371094 256.207031 342.386719 256.199219 342.398438 C 256.179688 342.441406 256.167969 342.464844 256.160156 342.472656 C 260.507812 360.742188 284.921875 463.40625 288.269531 477.476562 C 288.734375 479.425781 288.28125 481.480469 287.039062 483.054688 L 243.8125 537.898438 L 334.808594 537.898438 C 352.453125 537.898438 366.804688 523.515625 366.804688 505.832031 L 366.804688 281.996094 C 366.804688 264.316406 352.453125 249.929688 334.808594 249.929688 Z M 353.746094 404.953125 C 353.746094 420.519531 341.109375 433.183594 325.578125 433.183594 L 316.613281 433.183594 C 301.082031 433.183594 288.449219 420.519531 288.449219 404.953125 L 288.449219 367.734375 C 288.449219 364.121094 291.371094 361.191406 294.976562 361.191406 L 347.214844 361.191406 C 350.820312 361.191406 353.746094 364.121094 353.746094 367.734375 Z M 353.746094 404.953125 " fill-opacity="1" fill-rule="nonzero"/></g><path fill="#000000" d="M 301.507812 404.953125 C 301.507812 413.300781 308.285156 420.09375 316.613281 420.09375 L 325.578125 420.09375 C 333.910156 420.09375 340.683594 413.300781 340.683594 404.953125 L 340.683594 374.28125 L 301.507812 374.28125 Z M 301.507812 404.953125 " fill-opacity="1" fill-rule="nonzero"/><path fill="#000000" d="M 268.207031 449.570312 L 194.03125 481.894531 L 206.570312 499.59375 L 226.832031 488.417969 C 229.992188 486.675781 233.960938 487.832031 235.699219 490.996094 C 237.441406 494.164062 236.289062 498.144531 233.128906 499.886719 L 214.179688 510.335938 L 230.613281 533.535156 L 274.832031 477.429688 C 273.511719 471.871094 271.113281 461.796875 268.207031 449.570312 Z M 268.207031 449.570312 " fill-opacity="1" fill-rule="nonzero"/></svg>