<svg xmlns="http://www.w3.org/2000/svg" xmlns:xlink="http://www.w3.org/1999/xlink" width="1024" zoomAndPan="magnify" viewBox="0 0 768 767.999994" height="1024" preserveAspectRatio="xMidYMid meet" version="1.0"><defs><clipPath id="5cd0479e3d"><path d="M 243 305 L 587 305 L 587 592.414062 L 243 592.414062 Z M 243 305 " clip-rule="nonzero"/></clipPath><clipPath id="feeb25a67f"><path d="M 180.628906 297 L 333 297 L 333 414 L 180.628906 414 Z M 180.628906 297 " clip-rule="nonzero"/></clipPath></defs><g clip-path="url(#5cd0479e3d)"><path fill="#000000" d="M 569.847656 305.667969 C 560.230469 305.222656 552.070312 312.65625 551.625 322.277344 L 551.320312 328.808594 L 544.789062 328.503906 C 535.171875 328.058594 527.015625 335.492188 526.566406 345.113281 C 526.121094 354.730469 533.554688 362.890625 543.171875 363.339844 L 549.308594 363.625 L 336.488281 363.625 L 243.347656 407.324219 L 243.347656 592.414062 L 563.597656 592.414062 L 563.597656 364.289062 L 584.527344 365.261719 L 586.453125 323.894531 C 586.898438 314.277344 579.464844 306.117188 569.847656 305.667969 Z M 473.683594 552.792969 L 408.914062 555.804688 C 408.84375 555.808594 408.773438 555.808594 408.703125 555.808594 C 407.5625 555.808594 406.464844 555.386719 405.621094 554.617188 C 404.722656 553.796875 404.1875 552.65625 404.132812 551.445312 L 402.980469 526.722656 L 340.199219 523.804688 C 318.636719 522.800781 301.90625 504.4375 302.90625 482.867188 C 303.394531 472.417969 307.917969 462.785156 315.648438 455.738281 C 323.378906 448.691406 333.386719 445.074219 343.839844 445.566406 L 352.222656 445.957031 L 352.613281 437.574219 C 353.097656 427.125 357.621094 417.488281 365.351562 410.445312 C 391.019531 387.050781 432.449219 406.496094 430.835938 441.210938 L 430.265625 453.433594 C 430.671875 453.398438 431.078125 453.359375 431.480469 453.339844 C 448.898438 452.515625 463.976562 465.949219 464.800781 483.703125 L 465.0625 489.363281 C 467.765625 489.640625 481.394531 486.195312 493.667969 497.378906 C 499.960938 503.117188 503.644531 510.960938 504.042969 519.464844 C 504.859375 537.023438 491.238281 551.976562 473.683594 552.792969 Z M 473.683594 552.792969 " fill-opacity="1" fill-rule="nonzero"/></g><path fill="#000000" d="M 350.882812 265.894531 L 384.015625 250.347656 C 402.332031 241.753906 410.199219 219.980469 401.609375 201.660156 C 393.054688 183.417969 371.320312 175.4375 352.929688 184.066406 C 334.660156 192.636719 326.769531 214.480469 335.339844 232.753906 Z M 350.882812 265.894531 " fill-opacity="1" fill-rule="nonzero"/><path fill="#000000" d="M 309.449219 285.332031 C 318.667969 281.007812 341.628906 270.234375 342.597656 269.78125 L 327.054688 236.636719 C 318.496094 218.394531 296.765625 210.417969 278.375 219.042969 C 260.105469 227.617188 252.210938 249.457031 260.78125 267.730469 C 269.367188 286.039062 291.132812 293.921875 309.449219 285.332031 Z M 309.449219 285.332031 " fill-opacity="1" fill-rule="nonzero"/><path fill="#000000" d="M 313.347656 293.613281 L 340.546875 351.609375 L 415.101562 316.632812 L 387.902344 258.632812 C 379.042969 262.792969 322.214844 289.453125 313.347656 293.613281 Z M 313.347656 293.613281 " fill-opacity="1" fill-rule="nonzero"/><path fill="#000000" d="M 396.183594 254.746094 L 520.441406 196.441406 L 547.644531 254.4375 L 423.386719 312.742188 Z M 396.183594 254.746094 " fill-opacity="1" fill-rule="nonzero"/><g clip-path="url(#feeb25a67f)"><path fill="#000000" d="M 180.808594 355.796875 L 305.0625 297.492188 L 332.265625 355.488281 L 208.011719 413.792969 Z M 180.808594 355.796875 " fill-opacity="1" fill-rule="nonzero"/></g><path fill="#000000" d="M 471.144531 498.242188 L 460.917969 498.714844 C 458.40625 498.828125 456.253906 496.882812 456.136719 494.359375 C 455.152344 487.996094 457.953125 477.210938 448.265625 468.382812 C 443.78125 464.296875 437.964844 462.199219 431.90625 462.480469 C 431.214844 462.511719 430.523438 462.585938 429.835938 462.683594 L 427.019531 523.261719 C 426.90625 525.714844 424.882812 527.625 422.453125 527.625 C 422.382812 527.625 422.308594 527.621094 422.238281 527.617188 L 412.164062 527.152344 L 413.058594 546.449219 L 473.257812 543.648438 C 485.773438 543.066406 495.484375 532.410156 494.902344 519.890625 C 494.320312 507.386719 483.742188 497.664062 471.144531 498.242188 Z M 471.144531 498.242188 " fill-opacity="1" fill-rule="nonzero"/><path fill="#000000" d="M 421.695312 440.785156 C 422.929688 414.195312 391.199219 399.269531 371.515625 417.210938 C 365.589844 422.609375 362.125 429.992188 361.75 438 L 361.148438 450.953125 C 361.03125 453.476562 358.890625 455.4375 356.367188 455.3125 L 343.414062 454.710938 C 326.75 453.960938 312.816406 466.792969 312.046875 483.292969 C 311.28125 499.820312 324.097656 513.894531 340.625 514.664062 L 418.09375 518.265625 Z M 421.695312 440.785156 " fill-opacity="1" fill-rule="nonzero"/></svg>