<svg xmlns="http://www.w3.org/2000/svg" xmlns:xlink="http://www.w3.org/1999/xlink" width="1024" zoomAndPan="magnify" viewBox="0 0 768 767.999994" height="1024" preserveAspectRatio="xMidYMid meet" version="1.0"><defs><clipPath id="be5d2ea927"><path d="M 166 206 L 595 206 L 595 634.957031 L 166 634.957031 Z M 166 206 " clip-rule="nonzero"/></clipPath></defs><path fill="#000000" d="M 256.4375 537.109375 C 244.507812 525.167969 225.089844 525.167969 213.15625 537.113281 C 209.269531 540.996094 202.976562 541 199.09375 537.113281 C 187.136719 525.15625 167.761719 525.140625 155.800781 537.113281 C 143.875 549.054688 143.871094 568.484375 155.789062 580.429688 C 162.097656 586.746094 199.839844 624.519531 206.121094 630.808594 L 256.441406 580.441406 C 268.402344 568.464844 268.40625 549.09375 256.4375 537.109375 Z M 256.4375 537.109375 " fill-opacity="1" fill-rule="nonzero"/><path fill="#000000" d="M 437.078125 219.390625 L 437.078125 219.386719 L 487.394531 269.753906 C 623.824219 133.199219 410.0625 347.140625 537.714844 219.386719 C 543.496094 213.597656 546.679688 205.902344 546.679688 197.722656 C 546.679688 180.820312 533.027344 167.082031 516.074219 167.082031 C 507.898438 167.082031 500.210938 170.269531 494.429688 176.054688 C 490.546875 179.941406 484.25 179.941406 480.367188 176.058594 C 474.582031 170.269531 466.894531 167.085938 458.722656 167.085938 C 431.632812 167.085938 417.792969 200.082031 437.078125 219.390625 Z M 437.078125 219.390625 " fill-opacity="1" fill-rule="nonzero"/><path fill="#000000" d="M 450.175781 420.914062 C 450.175781 382.492188 418.945312 351.238281 380.558594 351.238281 C 342.171875 351.238281 310.941406 382.492188 310.941406 420.914062 C 310.941406 459.335938 342.171875 490.59375 380.558594 490.59375 C 418.945312 490.59375 450.175781 459.335938 450.175781 420.914062 Z M 345.195312 420.914062 C 345.195312 401.398438 361.058594 385.523438 380.558594 385.523438 C 400.058594 385.523438 415.921875 401.398438 415.921875 420.914062 C 415.921875 440.429688 400.058594 456.308594 380.558594 456.308594 C 361.058594 456.308594 345.195312 440.429688 345.195312 420.914062 Z M 345.195312 420.914062 " fill-opacity="1" fill-rule="nonzero"/><g clip-path="url(#be5d2ea927)"><path fill="#000000" d="M 523.5 261.769531 C 486.324219 298.980469 501.339844 283.949219 494.429688 290.867188 C 490.546875 294.753906 484.246094 294.753906 480.363281 290.867188 L 423.011719 233.464844 C 415.679688 226.125 411.257812 217.605469 409.324219 208.828125 C 281.082031 191.429688 166.730469 291.601562 166.730469 420.914062 C 166.730469 451.65625 173.074219 481.226562 185.582031 508.894531 C 192.859375 510.078125 199.902344 512.839844 206.128906 517.160156 C 225.792969 503.574219 253.019531 505.53125 270.507812 523.035156 C 290.234375 542.792969 290.25 574.746094 270.511719 594.519531 C 268.394531 596.640625 266.363281 598.667969 264.40625 600.628906 C 298.996094 623.101562 338.90625 634.929688 380.558594 634.929688 C 498.464844 634.929688 594.390625 538.921875 594.390625 420.914062 C 594.390625 359.886719 568.65625 302.398438 523.5 261.769531 Z M 243.308594 420.914062 C 243.308594 426.414062 238.855469 430.871094 233.363281 430.871094 C 227.871094 430.871094 223.417969 426.414062 223.417969 420.914062 C 223.417969 334.191406 293.910156 263.640625 380.558594 263.640625 C 386.050781 263.640625 390.503906 268.09375 390.503906 273.59375 C 390.503906 279.089844 386.050781 283.546875 380.558594 283.546875 C 304.878906 283.546875 243.308594 345.171875 243.308594 420.914062 Z M 291.046875 420.914062 C 291.046875 371.515625 331.203125 331.328125 380.558594 331.328125 C 429.914062 331.328125 470.070312 371.515625 470.070312 420.914062 C 470.070312 470.316406 429.914062 510.503906 380.558594 510.503906 C 331.203125 510.503906 291.046875 470.316406 291.046875 420.914062 Z M 380.558594 578.191406 C 375.066406 578.191406 370.613281 573.734375 370.613281 568.238281 C 370.613281 562.738281 375.066406 558.285156 380.558594 558.285156 C 456.238281 558.285156 517.808594 496.660156 517.808594 420.914062 C 517.808594 415.417969 522.261719 410.960938 527.753906 410.960938 C 533.246094 410.960938 537.699219 415.417969 537.699219 420.914062 C 537.699219 507.636719 467.207031 578.191406 380.558594 578.191406 Z M 380.558594 578.191406 " fill-opacity="1" fill-rule="nonzero"/></g></svg>