<svg xmlns="http://www.w3.org/2000/svg" xmlns:xlink="http://www.w3.org/1999/xlink" width="1024" zoomAndPan="magnify" viewBox="0 0 768 767.999994" height="1024" preserveAspectRatio="xMidYMid meet" version="1.0"><defs><clipPath id="86badd0649"><path d="M 412 128.496094 L 549 128.496094 L 549 197 L 412 197 Z M 412 128.496094 " clip-rule="nonzero"/></clipPath><clipPath id="24c5f68d84"><path d="M 151.171875 355 L 265 355 L 265 447 L 151.171875 447 Z M 151.171875 355 " clip-rule="nonzero"/></clipPath><clipPath id="48b64141e5"><path d="M 503 457 L 616.921875 457 L 616.921875 549 L 503 549 Z M 503 457 " clip-rule="nonzero"/></clipPath><clipPath id="7a62b1df60"><path d="M 151.171875 457 L 265 457 L 265 549 L 151.171875 549 Z M 151.171875 457 " clip-rule="nonzero"/></clipPath><clipPath id="bd96be7a05"><path d="M 151.171875 264 L 616.921875 264 L 616.921875 345 L 151.171875 345 Z M 151.171875 264 " clip-rule="nonzero"/></clipPath><clipPath id="b2a17871b7"><path d="M 503 355 L 616.921875 355 L 616.921875 447 L 503 447 Z M 503 355 " clip-rule="nonzero"/></clipPath><clipPath id="1541eb204f"><path d="M 151.171875 559 L 616.921875 559 L 616.921875 639.246094 L 151.171875 639.246094 Z M 151.171875 559 " clip-rule="nonzero"/></clipPath></defs><path fill="#000000" d="M 374.617188 479.914062 C 374.632812 479.929688 374.652344 479.945312 374.664062 479.957031 C 377.53125 482.398438 380.699219 485.097656 383.996094 487.96875 C 387.417969 484.984375 390.695312 482.199219 393.347656 479.941406 C 401.753906 472.777344 409.007812 466.601562 413.863281 460.746094 C 418.816406 454.773438 421.027344 449.476562 421.027344 443.570312 C 421.027344 437.984375 419.15625 432.882812 415.753906 429.195312 C 412.421875 425.582031 407.835938 423.59375 402.84375 423.59375 C 399.148438 423.59375 395.894531 424.71875 392.898438 427.035156 C 391.328125 428.25 389.882812 429.765625 388.597656 431.535156 C 387.53125 433.011719 385.820312 433.882812 383.996094 433.882812 C 382.171875 433.882812 380.460938 433.011719 379.394531 431.535156 C 378.113281 429.765625 376.667969 428.25 375.09375 427.035156 C 372.097656 424.71875 368.84375 423.59375 365.148438 423.59375 C 360.15625 423.59375 355.574219 425.582031 352.238281 429.195312 C 348.839844 432.882812 346.964844 437.988281 346.964844 443.570312 C 346.964844 449.476562 349.175781 454.773438 354.128906 460.746094 C 358.984375 466.597656 366.226562 472.769531 374.617188 479.914062 Z M 374.617188 479.914062 " fill-opacity="1" fill-rule="nonzero"/><path fill="#000000" d="M 383.996094 537.09375 C 430.964844 537.09375 469.179688 498.910156 469.179688 451.96875 C 469.179688 405.03125 430.964844 366.84375 383.996094 366.84375 C 337.023438 366.84375 298.808594 405.03125 298.808594 451.96875 C 298.808594 498.910156 337.023438 537.09375 383.996094 537.09375 Z M 343.886719 421.503906 C 349.394531 415.53125 356.945312 412.246094 365.148438 412.246094 C 371.367188 412.246094 377.050781 414.199219 382.042969 418.058594 C 382.710938 418.578125 383.363281 419.125 383.996094 419.703125 C 384.628906 419.125 385.28125 418.578125 385.949219 418.058594 C 390.941406 414.199219 396.625 412.246094 402.84375 412.246094 C 411.042969 412.246094 418.59375 415.53125 424.105469 421.503906 C 429.441406 427.289062 432.382812 435.128906 432.382812 443.574219 C 432.382812 452.1875 429.277344 459.945312 422.605469 467.988281 C 417.125 474.601562 409.523438 481.074219 400.726562 488.570312 C 397.96875 490.914062 394.558594 493.816406 391.035156 496.894531 C 389.085938 498.597656 386.585938 499.535156 383.996094 499.535156 C 381.402344 499.535156 378.898438 498.597656 376.949219 496.886719 C 373.554688 493.921875 370.261719 491.117188 367.359375 488.644531 C 358.476562 481.082031 350.871094 474.605469 345.382812 467.988281 C 338.714844 459.945312 335.605469 452.1875 335.605469 443.570312 C 335.605469 435.128906 338.546875 427.292969 343.886719 421.503906 Z M 343.886719 421.503906 " fill-opacity="1" fill-rule="nonzero"/><g clip-path="url(#86badd0649)"><path fill="#000000" d="M 520.292969 196.59375 L 548.6875 196.59375 L 548.6875 128.496094 L 412.390625 128.496094 L 412.390625 196.59375 Z M 520.292969 196.59375 " fill-opacity="1" fill-rule="nonzero"/></g><path fill="#000000" d="M 242.019531 219.296875 L 310.167969 219.296875 L 310.167969 253.34375 L 242.019531 253.34375 Z M 242.019531 219.296875 " fill-opacity="1" fill-rule="nonzero"/><path fill="#000000" d="M 383.996094 593.84375 C 462.28125 593.84375 525.972656 530.199219 525.972656 451.96875 C 525.972656 373.738281 462.28125 310.09375 383.996094 310.09375 C 305.710938 310.09375 242.019531 373.738281 242.019531 451.96875 C 242.019531 530.199219 305.710938 593.84375 383.996094 593.84375 Z M 383.996094 355.496094 C 437.230469 355.496094 480.539062 398.773438 480.539062 451.96875 C 480.539062 505.164062 437.230469 548.445312 383.996094 548.445312 C 330.761719 548.445312 287.453125 505.164062 287.453125 451.96875 C 287.453125 398.773438 330.761719 355.496094 383.996094 355.496094 Z M 383.996094 355.496094 " fill-opacity="1" fill-rule="nonzero"/><g clip-path="url(#24c5f68d84)"><path fill="#000000" d="M 264.96875 355.496094 L 151.15625 355.496094 L 151.15625 446.296875 L 230.777344 446.296875 C 232.035156 411.964844 244.644531 380.484375 264.96875 355.496094 Z M 264.96875 355.496094 " fill-opacity="1" fill-rule="nonzero"/></g><g clip-path="url(#48b64141e5)"><path fill="#000000" d="M 503.023438 548.445312 L 616.835938 548.445312 L 616.835938 457.644531 L 537.210938 457.644531 C 535.953125 491.976562 523.34375 523.457031 503.023438 548.445312 Z M 503.023438 548.445312 " fill-opacity="1" fill-rule="nonzero"/></g><g clip-path="url(#7a62b1df60)"><path fill="#000000" d="M 230.777344 457.644531 L 151.15625 457.644531 L 151.15625 548.445312 L 264.96875 548.445312 C 244.644531 523.457031 232.035156 491.976562 230.777344 457.644531 Z M 230.777344 457.644531 " fill-opacity="1" fill-rule="nonzero"/></g><g clip-path="url(#bd96be7a05)"><path fill="#000000" d="M 569.132812 264.695312 L 198.859375 264.695312 C 172.554688 264.695312 151.15625 286.078125 151.15625 312.363281 L 151.15625 344.144531 L 275.164062 344.144531 C 302.964844 316.125 341.484375 298.746094 383.996094 298.746094 C 426.507812 298.746094 465.027344 316.125 492.828125 344.144531 L 616.835938 344.144531 L 616.835938 312.363281 C 616.835938 286.078125 595.433594 264.695312 569.132812 264.695312 Z M 569.132812 264.695312 " fill-opacity="1" fill-rule="nonzero"/></g><g clip-path="url(#b2a17871b7)"><path fill="#000000" d="M 537.210938 446.292969 L 616.835938 446.292969 L 616.835938 355.492188 L 503.023438 355.492188 C 523.34375 380.484375 535.953125 411.964844 537.210938 446.292969 Z M 537.210938 446.292969 " fill-opacity="1" fill-rule="nonzero"/></g><g clip-path="url(#1541eb204f)"><path fill="#000000" d="M 383.996094 605.195312 C 341.484375 605.195312 302.964844 587.8125 275.164062 559.796875 L 151.15625 559.796875 L 151.15625 591.574219 C 151.15625 617.859375 172.554688 639.246094 198.859375 639.246094 L 569.132812 639.246094 C 595.4375 639.246094 616.835938 617.859375 616.835938 591.574219 L 616.835938 559.796875 L 492.828125 559.796875 C 465.027344 587.8125 426.507812 605.195312 383.996094 605.195312 Z M 383.996094 605.195312 " fill-opacity="1" fill-rule="nonzero"/></g><path fill="#000000" d="M 446.464844 207.945312 L 514.613281 207.945312 L 514.613281 253.34375 L 446.464844 253.34375 Z M 446.464844 207.945312 " fill-opacity="1" fill-rule="nonzero"/></svg>