<svg xmlns="http://www.w3.org/2000/svg" xmlns:xlink="http://www.w3.org/1999/xlink" width="1024" zoomAndPan="magnify" viewBox="0 0 768 767.999994" height="1024" preserveAspectRatio="xMidYMid meet" version="1.0"><defs><clipPath id="c00b819b81"><path d="M 214.074219 155.910156 L 553.824219 155.910156 L 553.824219 611.910156 L 214.074219 611.910156 Z M 214.074219 155.910156 " clip-rule="nonzero"/></clipPath></defs><g clip-path="url(#c00b819b81)"><path fill="#000000" d="M 548.902344 155.910156 L 218.992188 155.910156 C 216.316406 155.910156 214.140625 158.082031 214.140625 160.761719 L 214.140625 607.058594 C 214.140625 609.738281 216.3125 611.910156 218.992188 611.910156 L 548.902344 611.910156 C 551.582031 611.910156 553.753906 609.738281 553.753906 607.058594 L 553.753906 160.761719 C 553.753906 158.082031 551.582031 155.910156 548.902344 155.910156 Z M 514.941406 541.085938 C 514.941406 543.765625 512.769531 545.9375 510.089844 545.9375 C 497.785156 545.9375 487.773438 555.945312 487.773438 568.25 C 487.773438 570.929688 485.601562 573.101562 482.917969 573.101562 L 284.976562 573.101562 C 282.296875 573.101562 280.125 570.929688 280.125 568.25 C 280.125 555.945312 270.113281 545.9375 257.804688 545.9375 C 255.128906 545.9375 252.953125 543.765625 252.953125 541.085938 L 252.953125 226.734375 C 252.953125 224.054688 255.125 221.882812 257.804688 221.882812 C 270.113281 221.882812 280.125 211.875 280.125 199.570312 C 280.125 196.890625 282.296875 194.71875 284.976562 194.71875 L 482.921875 194.71875 C 485.601562 194.71875 487.773438 196.890625 487.773438 199.570312 C 487.773438 211.875 497.785156 221.882812 510.089844 221.882812 C 512.769531 221.882812 514.941406 224.054688 514.941406 226.734375 Z M 514.941406 541.085938 " fill-opacity="1" fill-rule="nonzero"/></g><path fill="#000000" d="M 478.433594 204.421875 L 289.460938 204.421875 C 287.359375 218.199219 276.4375 229.117188 262.660156 231.21875 L 262.660156 536.601562 C 276.4375 538.703125 287.359375 549.621094 289.460938 563.398438 L 478.4375 563.398438 C 480.539062 549.621094 491.457031 538.703125 505.238281 536.601562 L 505.238281 231.21875 C 491.457031 229.117188 480.539062 218.199219 478.433594 204.421875 Z M 345.136719 505.1875 L 296.617188 505.1875 C 293.941406 505.1875 291.765625 503.015625 291.765625 500.335938 C 291.765625 497.65625 293.9375 495.484375 296.617188 495.484375 L 345.132812 495.484375 C 347.8125 495.484375 349.988281 497.65625 349.988281 500.335938 C 349.988281 503.015625 347.816406 505.1875 345.136719 505.1875 Z M 345.136719 466.378906 L 296.617188 466.378906 C 293.941406 466.378906 291.765625 464.207031 291.765625 461.527344 C 291.765625 458.847656 293.9375 456.675781 296.617188 456.675781 L 345.132812 456.675781 C 347.8125 456.675781 349.988281 458.847656 349.988281 461.527344 C 349.988281 464.207031 347.816406 466.378906 345.136719 466.378906 Z M 345.136719 427.570312 L 296.617188 427.570312 C 293.941406 427.570312 291.765625 425.398438 291.765625 422.71875 C 291.765625 420.039062 293.9375 417.867188 296.617188 417.867188 L 345.132812 417.867188 C 347.8125 417.867188 349.988281 420.039062 349.988281 422.71875 C 349.988281 425.398438 347.816406 427.570312 345.136719 427.570312 Z M 345.136719 388.761719 L 296.617188 388.761719 C 293.941406 388.761719 291.765625 386.589844 291.765625 383.910156 C 291.765625 381.230469 293.9375 379.058594 296.617188 379.058594 L 345.132812 379.058594 C 347.8125 379.058594 349.988281 381.230469 349.988281 383.910156 C 349.988281 386.589844 347.816406 388.761719 345.136719 388.761719 Z M 336.546875 296.390625 C 336.515625 296.359375 336.484375 296.328125 336.453125 296.296875 C 324.332031 284.179688 324.332031 264.453125 336.453125 252.335938 C 342.324219 246.460938 350.132812 243.230469 358.4375 243.230469 C 366.742188 243.230469 374.550781 246.464844 380.421875 252.335938 L 383.949219 255.859375 L 387.476562 252.335938 C 393.347656 246.460938 401.15625 243.230469 409.460938 243.230469 C 417.761719 243.230469 425.570312 246.464844 431.441406 252.335938 C 443.566406 264.453125 443.566406 284.179688 431.441406 296.296875 C 431.410156 296.328125 431.378906 296.359375 431.347656 296.390625 L 396.078125 329.78125 C 392.726562 333.105469 388.335938 334.765625 383.949219 334.765625 C 379.558594 334.765625 375.171875 333.105469 371.820312 329.78125 Z M 471.277344 505.1875 L 383.949219 505.1875 C 381.269531 505.1875 379.097656 503.015625 379.097656 500.335938 C 379.097656 497.65625 381.269531 495.484375 383.949219 495.484375 L 471.277344 495.484375 C 473.957031 495.484375 476.128906 497.65625 476.128906 500.335938 C 476.128906 503.015625 473.957031 505.1875 471.277344 505.1875 Z M 471.277344 466.378906 L 383.949219 466.378906 C 381.269531 466.378906 379.097656 464.207031 379.097656 461.527344 C 379.097656 458.847656 381.269531 456.675781 383.949219 456.675781 L 471.277344 456.675781 C 473.957031 456.675781 476.128906 458.847656 476.128906 461.527344 C 476.128906 464.207031 473.957031 466.378906 471.277344 466.378906 Z M 471.277344 427.570312 L 383.949219 427.570312 C 381.269531 427.570312 379.097656 425.398438 379.097656 422.71875 C 379.097656 420.039062 381.269531 417.867188 383.949219 417.867188 L 471.277344 417.867188 C 473.957031 417.867188 476.128906 420.039062 476.128906 422.71875 C 476.128906 425.398438 473.957031 427.570312 471.277344 427.570312 Z M 471.277344 388.761719 L 383.949219 388.761719 C 381.269531 388.761719 379.097656 386.589844 379.097656 383.910156 C 379.097656 381.230469 381.269531 379.058594 383.949219 379.058594 L 471.277344 379.058594 C 473.957031 379.058594 476.128906 381.230469 476.128906 383.910156 C 476.128906 386.589844 473.957031 388.761719 471.277344 388.761719 Z M 471.277344 388.761719 " fill-opacity="1" fill-rule="nonzero"/><path fill="#000000" d="M 389.265625 322.871094 C 389.296875 322.839844 389.328125 322.808594 389.359375 322.777344 L 424.625 289.394531 C 432.921875 281.050781 432.90625 267.519531 424.582031 259.195312 C 420.542969 255.15625 415.171875 252.933594 409.460938 252.933594 C 403.746094 252.933594 398.375 255.15625 394.335938 259.195312 L 387.378906 266.152344 C 385.484375 268.042969 382.410156 268.042969 380.515625 266.152344 L 373.558594 259.195312 C 369.519531 255.15625 364.148438 252.929688 358.4375 252.929688 C 352.722656 252.929688 347.351562 255.15625 343.3125 259.195312 C 334.988281 267.515625 334.972656 281.050781 343.269531 289.394531 L 378.535156 322.777344 C 378.566406 322.808594 378.597656 322.839844 378.628906 322.871094 C 380.050781 324.289062 381.9375 325.074219 383.949219 325.074219 C 385.957031 325.074219 387.84375 324.292969 389.265625 322.871094 Z M 389.265625 322.871094 " fill-opacity="1" fill-rule="nonzero"/></svg>